<svg version="1.0" xmlns="http://www.w3.org/2000/svg"
 width="300.000000pt" height="300.000000pt" viewBox="0 0 300.000000 300.000000"
 preserveAspectRatio="xMidYMid meet">
<g transform="translate(0.000000,300.000000) scale(0.100000,-0.100000)">
<path d="M1080 2985 c-554 -92 -968 -533 -1020 -1087 -61 -640 395 -1214 1040
-1309 109 -16 319 -6 433 20 108 25 237 76 339 136 43 25 81 45 86 45 4 0 170
-169 367 -376 226 -236 375 -383 399 -396 72 -37 165 -7 203 65 19 37 21 114
3 148 -7 13 -74 87 -149 164 -74 77 -185 192 -246 255 -60 63 -163 169 -228
236 l-118 121 57 79 c71 99 146 252 179 369 73 253 56 556 -44 797 -133 319
-414 579 -741 686 -169 56 -396 75 -560 47z m392 -325 c515 -134 806 -663 638
-1158 -164 -482 -699 -732 -1171 -547 -262 103 -458 321 -540 600 -20 69 -24
102 -24 235 0 185 11 233 91 395 164 336 503 525 881 493 45 -4 102 -12 125
-18z"/>
</g>
</svg>
